<svg height="800px" width="800px" version="1.1" id="_x32_" xmlns="http://www.w3.org/2000/svg"
	xmlns:xlink="http://www.w3.org/1999/xlink"
	viewBox="0 0 512 512" xml:space="preserve">
<style>
        path {
		fill: black;
        }
        @media (prefers-color-scheme: dark) {
            path {
                fill: white;
            }
        }
    </style>
<g>
	<path d="M366.313,58.34c-32.779-4.382-64.158,2.121-86.979,6.297V35.006c0-5.948-4.825-10.766-10.774-10.766h-25.13
		c-5.94,0-10.765,4.817-10.765,10.766v29.631c-22.821-4.176-54.2-10.679-86.987-6.297C32.612,73.464,0,152.872,0,246.401
		c0,115.273,76.197,203.035,180.989,231.503c23.722,6.439,48.916,9.856,75.01,9.856c26.095,0,51.289-3.417,75.003-9.856
		C435.803,449.436,512,361.674,512,246.401C512,152.872,479.387,73.464,366.313,58.34z M366.479,146.703l49.216,68.477
		l-104.08,10.868L366.479,146.703z M254.695,218.091l33.016,41.717c-3.915,0-66.982,0-66.982,0L254.695,218.091z M140.063,146.703
		l54.856,79.346L90.846,215.18L140.063,146.703z M355.113,408.857v-22.488h-44.929v38.933c-30.667,8.329-54.302,9.572-54.302,9.572
		s-22.251,0.719-51.62-5.664v-42.84h-44.937v28.144c-44.494-20.218-88.972-60.417-95.553-140.292c0,0,24.932,11.058,85.966,18.003
		v42.524h57.427v-38.094c14.365,0.68,31.443,1.076,49.122,1.076c20.012,0,37.042-0.506,54.991-1.36v38.379h55.639v-43.236
		c57.434-6.96,80.635-17.291,80.635-17.291C445.667,347.072,400.896,387.018,355.113,408.857z"/>
</g>
</svg>